<?xml version="1.0" encoding="utf-8"?>
<!-- Generator: Adobe Illustrator 24.1.2, SVG Export Plug-In . SVG Version: 6.00 Build 0)  -->
<svg version="1.1" id="PRINT" xmlns="http://www.w3.org/2000/svg" xmlns:xlink="http://www.w3.org/1999/xlink" x="0px" y="0px"
	 viewBox="0 0 500 500" style="enable-background:new 0 0 500 500;" xml:space="preserve">
<style type="text/css">
	.st0{fill:#FFFFFF;}
	.st1{fill:#939393;}
	.st2{font-family:'Montserrat-Light';}
	.st3{font-size:6.4971px;}
	.st4{fill:#FF3B3B;}
</style>
<g>
	<g>
		<g>
			<path class="st0" d="M226.31,249.87c0.06,0.02,0.13,0.03,0.22,0.05c0.09,0.02,0.19,0.03,0.3,0.03s0.22,0.01,0.32,0.01h0.42v1.13
				h-5.72v-1.13h0.18c0.29,0,0.53-0.04,0.72-0.12c0.19-0.08,0.28-0.24,0.28-0.48v-8.37c0-0.24-0.09-0.41-0.28-0.48
				s-0.43-0.12-0.72-0.12h-0.18v-1.13h6.08c1.46,0,2.59,0.31,3.39,0.93c0.8,0.62,1.21,1.5,1.21,2.62c0,0.76-0.19,1.41-0.57,1.98
				c-0.38,0.56-0.92,1-1.62,1.31c-0.7,0.31-1.53,0.47-2.5,0.47h-2.12v-1.32h1.45c0.47,0,0.86-0.09,1.17-0.28
				c0.32-0.18,0.56-0.45,0.73-0.81s0.25-0.79,0.25-1.3c0-0.52-0.08-0.95-0.24-1.28c-0.16-0.33-0.4-0.58-0.71-0.75
				c-0.31-0.17-0.69-0.25-1.13-0.25h-1.02v9.22C226.23,249.83,226.25,249.85,226.31,249.87z"/>
			<path class="st0" d="M233.26,251.1v-1.07h0.02c0.25,0,0.47-0.03,0.63-0.1c0.17-0.07,0.25-0.2,0.25-0.4v-5.27
				c0-0.11-0.03-0.2-0.08-0.27c-0.06-0.07-0.14-0.12-0.25-0.16c-0.11-0.04-0.26-0.08-0.43-0.12l-0.13-0.03v-1.12h3.73v2.7l0.2-0.2
				v4.67c0,0.09,0.06,0.16,0.19,0.2c0.13,0.05,0.28,0.07,0.44,0.08s0.32,0.02,0.47,0.02h0.13v1.07H233.26L233.26,251.1z
				 M240.05,242.55v2.58c-0.08-0.02-0.17-0.04-0.28-0.07c-0.11-0.02-0.23-0.04-0.34-0.05c-0.12-0.01-0.24-0.02-0.36-0.02
				c-0.26,0-0.49,0.02-0.72,0.07c-0.22,0.05-0.42,0.13-0.6,0.24c-0.18,0.11-0.34,0.26-0.48,0.43c-0.14,0.18-0.28,0.39-0.42,0.65v-1
				c0.16-0.58,0.34-1.09,0.55-1.52c0.21-0.44,0.48-0.78,0.8-1.03s0.73-0.37,1.23-0.37c0.13,0,0.25,0.01,0.37,0.02
				C239.91,242.5,239.99,242.52,240.05,242.55z"/>
			<path class="st0" d="M250.67,246.83c0,0.87-0.2,1.64-0.59,2.31c-0.39,0.67-0.96,1.2-1.68,1.57c-0.73,0.37-1.59,0.56-2.58,0.56
				c-0.98,0-1.83-0.18-2.57-0.56c-0.73-0.37-1.3-0.9-1.69-1.57c-0.39-0.67-0.59-1.44-0.59-2.31c0-0.66,0.11-1.26,0.34-1.8
				c0.23-0.55,0.55-1.01,0.98-1.4c0.43-0.39,0.94-0.69,1.53-0.91c0.6-0.22,1.26-0.32,1.99-0.32c0.74,0,1.41,0.11,2.01,0.32
				c0.6,0.22,1.11,0.52,1.53,0.91s0.75,0.85,0.97,1.4C250.56,245.57,250.67,246.17,250.67,246.83z M244.1,246.83
				c0,0.68,0.07,1.25,0.2,1.72c0.13,0.47,0.33,0.82,0.58,1.07c0.25,0.24,0.57,0.37,0.93,0.37c0.38,0,0.69-0.12,0.94-0.37
				c0.25-0.24,0.44-0.6,0.58-1.07c0.14-0.47,0.21-1.04,0.21-1.72c0-0.69-0.07-1.26-0.21-1.72c-0.14-0.46-0.33-0.8-0.58-1.03
				c-0.25-0.23-0.56-0.35-0.94-0.35c-0.37,0-0.68,0.12-0.93,0.35s-0.45,0.58-0.58,1.03C244.17,245.57,244.1,246.14,244.1,246.83z"/>
			<path class="st0" d="M257.8,239.26c0.7,0,1.32,0.07,1.86,0.2c0.54,0.13,0.99,0.32,1.35,0.58c0.36,0.25,0.64,0.56,0.83,0.92
				c0.19,0.36,0.28,0.76,0.28,1.19c0,0.61-0.16,1.12-0.47,1.53c-0.31,0.41-0.75,0.72-1.31,0.92c-0.56,0.21-1.22,0.32-1.96,0.36
				l0.72-0.35v0.5l-0.58-0.38c0.81,0.02,1.52,0.15,2.13,0.39c0.61,0.24,1.09,0.58,1.43,1.02c0.34,0.44,0.52,0.98,0.52,1.63
				c0,0.52-0.1,0.99-0.3,1.4c-0.2,0.41-0.5,0.76-0.9,1.05s-0.89,0.51-1.46,0.66c-0.57,0.15-1.24,0.23-1.99,0.23h-6.24v-1.13h0.18
				c0.29,0,0.53-0.04,0.71-0.12c0.18-0.08,0.28-0.24,0.28-0.48v-8.37c0-0.24-0.09-0.41-0.28-0.48c-0.18-0.08-0.42-0.12-0.71-0.12
				h-0.18v-1.13L257.8,239.26L257.8,239.26z M255.59,244.3h1.47c0.44,0,0.81-0.07,1.08-0.23c0.28-0.15,0.48-0.37,0.6-0.67
				c0.12-0.3,0.18-0.66,0.18-1.08c0-0.38-0.07-0.7-0.21-0.96c-0.14-0.26-0.34-0.46-0.61-0.6s-0.6-0.21-0.98-0.21h-1v9.27h1.1
				c0.47,0,0.85-0.08,1.17-0.23c0.31-0.16,0.55-0.39,0.71-0.72c0.16-0.32,0.24-0.73,0.24-1.22c0-0.43-0.07-0.81-0.23-1.13
				c-0.15-0.32-0.39-0.56-0.71-0.73c-0.32-0.17-0.74-0.26-1.25-0.26h-1.57L255.59,244.3L255.59,244.3z"/>
			<path class="st0" d="M273.42,246.83c0,0.87-0.2,1.64-0.59,2.31c-0.39,0.67-0.96,1.2-1.68,1.57s-1.59,0.56-2.58,0.56
				c-0.98,0-1.83-0.18-2.57-0.56c-0.73-0.37-1.3-0.9-1.69-1.57c-0.39-0.67-0.59-1.44-0.59-2.31c0-0.66,0.11-1.26,0.34-1.8
				c0.23-0.55,0.55-1.01,0.98-1.4c0.43-0.39,0.94-0.69,1.53-0.91c0.6-0.22,1.26-0.32,1.99-0.32c0.74,0,1.41,0.11,2.01,0.32
				c0.6,0.22,1.11,0.52,1.53,0.91s0.75,0.85,0.97,1.4C273.31,245.57,273.42,246.17,273.42,246.83z M266.86,246.83
				c0,0.68,0.07,1.25,0.2,1.72c0.13,0.47,0.33,0.82,0.58,1.07c0.25,0.24,0.57,0.37,0.93,0.37c0.38,0,0.69-0.12,0.94-0.37
				s0.44-0.6,0.58-1.07c0.14-0.47,0.21-1.04,0.21-1.72c0-0.69-0.07-1.26-0.21-1.72c-0.14-0.46-0.33-0.8-0.58-1.03
				s-0.56-0.35-0.94-0.35c-0.37,0-0.68,0.12-0.93,0.35c-0.26,0.23-0.45,0.58-0.58,1.03C266.92,245.57,266.86,246.14,266.86,246.83z"
				/>
			<path class="st0" d="M284.19,246.83c0,0.87-0.2,1.64-0.59,2.31c-0.39,0.67-0.96,1.2-1.68,1.57s-1.59,0.56-2.58,0.56
				c-0.98,0-1.83-0.18-2.57-0.56c-0.73-0.37-1.3-0.9-1.69-1.57c-0.39-0.67-0.59-1.44-0.59-2.31c0-0.66,0.11-1.26,0.34-1.8
				c0.23-0.55,0.55-1.01,0.98-1.4c0.43-0.39,0.94-0.69,1.53-0.91c0.6-0.22,1.26-0.32,1.99-0.32c0.74,0,1.41,0.11,2.01,0.32
				c0.6,0.22,1.11,0.52,1.53,0.91c0.43,0.39,0.75,0.85,0.97,1.4C284.08,245.57,284.19,246.17,284.19,246.83z M277.63,246.83
				c0,0.68,0.07,1.25,0.2,1.72c0.13,0.47,0.33,0.82,0.58,1.07c0.25,0.24,0.57,0.37,0.93,0.37c0.38,0,0.69-0.12,0.94-0.37
				s0.44-0.6,0.58-1.07c0.14-0.47,0.21-1.04,0.21-1.72c0-0.69-0.07-1.26-0.21-1.72c-0.14-0.46-0.33-0.8-0.58-1.03
				s-0.56-0.35-0.94-0.35c-0.37,0-0.68,0.12-0.93,0.35c-0.26,0.23-0.45,0.58-0.58,1.03C277.69,245.57,277.63,246.14,277.63,246.83z"
				/>
			<path class="st0" d="M289.09,238.84v11.05c0,0.03,0.04,0.06,0.12,0.08c0.08,0.02,0.18,0.04,0.31,0.04s0.23,0.01,0.32,0.01h0.05
				v1.07h-4.75v-1.07h0.02c0.25,0,0.47-0.03,0.63-0.1c0.17-0.07,0.25-0.2,0.25-0.4v-8.99c0-0.12-0.02-0.22-0.07-0.28
				c-0.05-0.07-0.13-0.12-0.24-0.17c-0.11-0.04-0.26-0.08-0.45-0.12l-0.13-0.03v-1.1L289.09,238.84L289.09,238.84z M295.96,251.1
				h-5.22v-1.07h0.05c0.1,0,0.21,0,0.32-0.01c0.12,0,0.22-0.02,0.3-0.04s0.12-0.05,0.12-0.08l-2.08-3.05v-0.38l2.87-2.53
				c0-0.09-0.07-0.15-0.22-0.19c-0.14-0.04-0.31-0.07-0.5-0.08c-0.19-0.02-0.36-0.02-0.5-0.02h-0.1v-1.07h4.32v1.07h-0.03
				c-0.21,0-0.42,0.03-0.62,0.09c-0.2,0.06-0.39,0.14-0.56,0.25c-0.17,0.11-0.34,0.23-0.49,0.36l-2.58,2.3l0.62-1.35l2.98,4.2
				c0.12,0.14,0.25,0.25,0.37,0.33c0.13,0.08,0.27,0.13,0.43,0.17c0.16,0.03,0.32,0.05,0.48,0.05h0.03L295.96,251.1L295.96,251.1z"
				/>
		</g>
	</g>
	<text transform="matrix(1 0 0 1 221.8576 259.4647)" class="st1 st2 st3">High Quality Books</text>
	<g id="CUSTOM-group">
		<path class="st4" d="M203.97,256.44c0,0,0.82-1.09,2.94-1.06c2.12,0.03,11.2,0,11.2,0v-15.14h-12.29c0,0-1.96,0.65-1.85,2.12
			C204.08,243.82,203.97,256.44,203.97,256.44z"/>
		<g>
			<path class="st0" d="M205.82,259.54h12.53c0.25,0,0.46-0.21,0.46-0.46v-3.71v-15.31c0-0.25-0.21-0.46-0.46-0.46h-12.53
				c-1.28,0-2.32,1.04-2.32,2.32v15.31C203.5,258.5,204.54,259.54,205.82,259.54z M206.28,240.52h11.6v14.38h-11.6V240.52z
				 M204.43,241.91c0-0.6,0.39-1.11,0.93-1.31v14.35c-0.34,0.07-0.66,0.22-0.93,0.43V241.91z M205.82,255.83h12.06v0.93h-4.64
				c-0.25,0-0.46,0.21-0.46,0.46c0,0.25,0.21,0.46,0.46,0.46h4.64v0.93h-12.06c-0.77,0-1.39-0.63-1.39-1.39
				C204.43,256.46,205.05,255.83,205.82,255.83z"/>
			<path class="st0" d="M216.49,242.84h-8.82c-0.25,0-0.46,0.21-0.46,0.46v4.18c0,0.25,0.21,0.46,0.46,0.46h8.82
				c0.25,0,0.46-0.21,0.46-0.46v-4.18C216.95,243.04,216.75,242.84,216.49,242.84z M216.03,247.01h-7.89v-3.25h7.89V247.01z"/>
		</g>
	</g>
	<g id="CUSTOM-group_00000138553014295135107200000001584795841100696755_">
		<g>
			<polygon class="st4" points="293.98,257.59 296.02,259.03 296.02,259.05 287.87,259.05 287.87,256.04 296.02,256.04 			"/>
			<path class="st0" d="M296.02,259.53h-8.15c-0.26,0-0.48-0.22-0.48-0.48v-3.01c0-0.26,0.22-0.48,0.48-0.48h8.15
				c0.21,0,0.39,0.13,0.46,0.33c0.06,0.19,0,0.41-0.17,0.54l-1.51,1.15l1.5,1.06c0.13,0.09,0.2,0.24,0.2,0.39v0.03
				C296.5,259.32,296.28,259.53,296.02,259.53z M288.35,258.57h6.2l-0.84-0.59c-0.12-0.09-0.2-0.23-0.2-0.38
				c0-0.15,0.07-0.3,0.19-0.39l0.9-0.68h-6.24L288.35,258.57L288.35,258.57z"/>
		</g>
	</g>
</g>
</svg>
